<svg xmlns="http://www.w3.org/2000/svg" width="37" height="37" fill="none"><path fill="currentColor" d="M30.743 34.017c2.903 0 5.257-2.385 5.257-5.326 0-2.942-2.354-5.326-5.257-5.326-2.903 0-5.257 2.384-5.257 5.326 0 2.941 2.354 5.326 5.257 5.326zm-.057-32.09a5.24 5.24 0 0 0-3.525 1.365c-7.69 5.76-13.179.987-14.395-.254-.075-.086-.254-.277-.254-.277a6.135 6.135 0 0 0-3.158-1.655 6.088 6.088 0 0 0-3.535.389 6.182 6.182 0 0 0-2.735 2.302 6.302 6.302 0 0 0-1.023 3.45c.009.847.182 1.686.509 2.467.395.986 1.332 1.91 1.835 2.693.942 1.442 1.448 2.722 1.448 4.552A9.25 9.25 0 0 1 3.38 23.2c-.17.204-.911 1.06-.92 1.066a7.405 7.405 0 0 0-.702 7.676 7.288 7.288 0 0 0 2.665 2.962A7.158 7.158 0 0 0 8.227 36a7.16 7.16 0 0 0 3.805-1.097 7.288 7.288 0 0 0 2.665-2.961 7.406 7.406 0 0 0-.702-7.677l-.654-.754a9.346 9.346 0 0 1-2.746-6.007 9.378 9.378 0 0 1 1.898-6.336 8.808 8.808 0 0 1 1.078-1.177 9.087 9.087 0 0 1 6.457-2.412 9.103 9.103 0 0 1 6.29 2.825c.17.182.686.739.767.809 1.194 1.047 2.178 1.493 3.595 1.493a5.286 5.286 0 0 0 3.762-1.579A5.426 5.426 0 0 0 36 7.317c0-1.43-.56-2.801-1.558-3.812a5.285 5.285 0 0 0-3.762-1.578h.006z"/></svg>
