<svg width="274" height="142" viewBox="0 0 274 142" fill="none" xmlns="http://www.w3.org/2000/svg">
<g opacity="0.3">
<rect x="50.7471" y="56.36" width="171.6" height="50.16" rx="17.0149" fill="#E8E8E8"/>
<rect x="51.1015" y="56.7145" width="170.891" height="49.451" rx="16.6604" stroke="black" stroke-opacity="0.1" stroke-width="0.708955"/>
</g>
<rect x="34.9072" y="39.96" width="203.28" height="58.08" rx="17.0149" fill="#F0F0F0"/>
<rect x="35.2617" y="40.3144" width="202.571" height="57.371" rx="16.6604" stroke="black" stroke-opacity="0.04" stroke-width="0.708955"/>
<rect x="21.3877" y="22.9999" width="230" height="63" rx="20" fill="#EBEBEB"/>
<rect x="21.7422" y="23.3544" width="229.291" height="62.291" rx="19.6455" stroke="black" stroke-opacity="0.1" stroke-width="0.708955"/>
<rect x="30" y="32" width="42" height="42" rx="14" fill="#E0E0E0"/>
<path opacity="0.7" d="M51 59.7798C50.231 59.7798 49.7183 59.2451 49.7183 58.4395V51.1152L49.7915 49.5332L48.7002 50.8296L47.0742 52.4702C46.8398 52.7119 46.5469 52.8877 46.1587 52.8877C45.4702 52.8877 44.9502 52.3896 44.9502 51.6572C44.9502 51.3276 45.0894 51.0054 45.3457 50.749L50.0625 46.0249C50.2896 45.7979 50.6558 45.6514 51 45.6514C51.3442 45.6514 51.7104 45.7979 51.9375 46.0249L56.6543 50.749C56.918 51.0054 57.0498 51.3276 57.0498 51.6572C57.0498 52.3896 56.5298 52.8877 55.8486 52.8877C55.4531 52.8877 55.1675 52.7119 54.9331 52.4702L53.2925 50.8296L52.2085 49.5332L52.2744 51.1152V58.4395C52.2744 59.2451 51.769 59.7798 51 59.7798Z" fill="#7B7B7B"/>
<g opacity="0.6">
<rect x="80" y="49.9999" width="42" height="9" rx="4.5" fill="#D4D4D4"/>
</g>
<g opacity="0.6">
<rect x="229" y="49.9999" width="9" height="9" rx="4.5" fill="#D4D4D4"/>
</g>
</svg>
